# xmcd
#
# Track frame offsets:
#	182
#	12965
#	31565
#	46670
#	58612
#	80427
#	97460
#	112577
#	126930
#	141675
#
# Disc length: 2155 seconds
# Revision: 4
# Processed by: cddbd v1.5.2PL0 Copyright (c) Steve Scherf et al.
# Submitted via: dBpowerAMP V12.0
#
DISCID=7e08690a
DTITLE=Robert Cray - The Score
DYEAR=1996
DGENRE=Blues
TTITLE0=Too Many Cooks
TTITLE1=The Score
TTITLE2=The Welfare (Turns Its Back on You)
TTITLE3=That's What I'll Do
TTITLE4=I'd Rather Be A Wino
TTITLE5=Who's Been Talking?
TTITLE6=Sleeping In The Ground
TTITLE7=I'm Gonna Forget About You
TTITLE8=Nice As A Fool Can Be
TTITLE9=If You're Thinkin' What I'm Thinkin'
EXTD=
EXTT0=
EXTT1=
EXTT2=
EXTT3=
EXTT4=
EXTT5=
EXTT6=
EXTT7=
EXTT8=
EXTT9=
PLAYORDER=
